<svg width="36" height="36" viewBox="0 0 36 36" fill="none" xmlns="http://www.w3.org/2000/svg">
<g id="social-icon-instagram" clip-path="url(#clip0_133_27420)">
<path id="Background" d="M18 36C27.9411 36 36 27.9411 36 18C36 8.05888 27.9411 0 18 0C8.05888 0 0 8.05888 0 18C0 27.9411 8.05888 36 18 36Z" fill="url(#paint0_radial_133_27420)"/>
<path id="Instagram" fill-rule="evenodd" clip-rule="evenodd" d="M18.0012 7.20007C20.934 7.20007 21.3026 7.21196 22.4539 7.26547C23.35 7.28261 24.2365 7.45215 25.0757 7.76683C25.7928 8.04485 26.4441 8.46936 26.988 9.01324C27.5319 9.55712 27.9564 10.2084 28.2344 10.9256C28.5484 11.7628 28.718 12.6473 28.7358 13.5414C28.7893 14.6927 28.8012 15.0613 28.8012 17.9941C28.8012 20.927 28.7893 21.2956 28.7358 22.4469C28.7186 23.3429 28.5491 24.2295 28.2344 25.0686C27.9564 25.7858 27.5319 26.4371 26.988 26.981C26.4441 27.5248 25.7928 27.9493 25.0757 28.2274C24.2388 28.5434 23.3543 28.715 22.4599 28.7347C21.3085 28.7882 20.94 28.8001 18.0071 28.8001C15.0743 28.8001 14.7057 28.7882 13.5543 28.7347C12.6583 28.7175 11.7717 28.548 10.9326 28.2333C10.2155 27.9553 9.56416 27.5308 9.02028 26.9869C8.4764 26.443 8.0519 25.7917 7.77387 25.0746C7.45783 24.2377 7.28628 23.3532 7.26656 22.4588C7.21306 21.3074 7.20117 20.9389 7.20117 18.006C7.20117 15.0732 7.21306 14.7046 7.26656 13.5532C7.28371 12.6572 7.45325 11.7707 7.76792 10.9315C8.04526 10.2133 8.46945 9.56081 9.01337 9.01587C9.55728 8.47093 10.2089 8.04551 10.9267 7.76683C11.7639 7.45281 12.6484 7.28328 13.5425 7.26547C14.6997 7.21196 15.0683 7.20007 18.0012 7.20007ZM22.3608 9.20947C21.2233 9.15794 20.8805 9.14605 18.0012 9.14605C15.1218 9.14605 14.775 9.15794 13.6415 9.20947C12.9556 9.21649 12.2759 9.34116 11.6321 9.57805C11.1656 9.75794 10.7418 10.0336 10.3882 10.3871C10.0347 10.7407 9.75904 11.1645 9.57915 11.631C9.34203 12.2735 9.2167 12.9517 9.20859 13.6365C9.15706 14.7739 9.14517 15.1168 9.14517 17.9961C9.14517 20.8754 9.15706 21.2222 9.20859 22.3557C9.21579 23.0431 9.34114 23.7242 9.57915 24.3691C9.75904 24.8357 10.0347 25.2594 10.3882 25.613C10.7418 25.9666 11.1656 26.2422 11.6321 26.4221C12.2746 26.6592 12.9528 26.7845 13.6376 26.7927C14.775 26.8442 15.1179 26.8561 17.9972 26.8561C20.8765 26.8561 21.2233 26.8442 22.3568 26.7927C23.0442 26.7855 23.7253 26.6601 24.3702 26.4221C24.8368 26.2422 25.2605 25.9666 25.6141 25.613C25.9677 25.2594 26.2433 24.8357 26.4232 24.3691C26.6603 23.7267 26.7856 23.0484 26.7938 22.3637C26.8453 21.2262 26.8572 20.8834 26.8572 18.004C26.8572 15.1247 26.8453 14.7779 26.7938 13.6444C26.7866 12.957 26.6612 12.276 26.4232 11.631C26.2433 11.1645 25.9677 10.7407 25.6141 10.3871C25.2605 10.0336 24.8368 9.75794 24.3702 9.57805C23.7277 9.34161 23.0494 9.21694 22.3648 9.20947H22.3608ZM18.0012 21.6007C18.7133 21.6007 19.4095 21.3896 20.0016 20.9939C20.5937 20.5983 21.0552 20.0359 21.3277 19.378C21.6003 18.7201 21.6716 17.9961 21.5326 17.2976C21.3937 16.5992 21.0508 15.9576 20.5472 15.454C20.0437 14.9505 19.4021 14.6075 18.7036 14.4686C18.0052 14.3297 17.2812 14.401 16.6233 14.6735C15.9653 14.946 15.403 15.4075 15.0073 15.9997C14.6117 16.5918 14.4005 17.2879 14.4005 18.0001C14.401 18.9549 14.7806 19.8704 15.4557 20.5455C16.1308 21.2207 17.0464 21.6002 18.0012 21.6007ZM18.0012 12.4534C19.0986 12.4534 20.1714 12.7789 21.0838 13.3885C21.9963 13.9982 22.7075 14.8648 23.1274 15.8787C23.5474 16.8926 23.6573 18.0082 23.4432 19.0845C23.2291 20.1609 22.7006 21.1495 21.9246 21.9255C21.1486 22.7015 20.16 23.23 19.0837 23.4441C18.0073 23.6582 16.8917 23.5483 15.8778 23.1283C14.8639 22.7084 13.9973 21.9972 13.3877 21.0847C12.778 20.1722 12.4525 19.0995 12.4525 18.0021C12.4525 16.5305 13.0371 15.1192 14.0777 14.0786C15.1183 13.038 16.5296 12.4534 18.0012 12.4534ZM25.0618 12.2354C25.0618 12.4918 24.9858 12.7423 24.8434 12.9555C24.701 13.1686 24.4986 13.3347 24.2618 13.4328C24.0249 13.5309 23.7644 13.5566 23.513 13.5065C23.2616 13.4565 23.0306 13.3331 22.8494 13.1519C22.6681 12.9706 22.5447 12.7397 22.4947 12.4883C22.4447 12.2369 22.4704 11.9763 22.5684 11.7395C22.6665 11.5027 22.8326 11.3003 23.0458 11.1579C23.2589 11.0155 23.5095 10.9394 23.7658 10.9394C24.1095 10.9394 24.4392 11.076 24.6822 11.319C24.9253 11.5621 25.0618 11.8917 25.0618 12.2354Z" fill="white"/>
</g>
<defs>
<radialGradient id="paint0_radial_133_27420" cx="0" cy="0" r="1" gradientUnits="userSpaceOnUse" gradientTransform="translate(9.17513 35.1719) rotate(-38.74) scale(51.1083 32.7093)">
<stop stop-color="#F9D27A"/>
<stop offset="0.05" stop-color="#F8C871"/>
<stop offset="0.14" stop-color="#F5AD58"/>
<stop offset="0.25" stop-color="#EF8130"/>
<stop offset="0.26" stop-color="#EF7E2D"/>
<stop offset="0.36" stop-color="#F04C3E"/>
<stop offset="0.38" stop-color="#ED4A45"/>
<stop offset="0.49" stop-color="#D43E79"/>
<stop offset="0.55" stop-color="#CA398E"/>
<stop offset="0.7" stop-color="#8D3CC8"/>
<stop offset="0.9" stop-color="#304DF0"/>
</radialGradient>
<clipPath id="clip0_133_27420">
<rect width="36" height="36" fill="white"/>
</clipPath>
</defs>
</svg>
