<svg width="24" height="24" viewBox="0 0 24 24" fill="none" xmlns="http://www.w3.org/2000/svg">
    <path d="M8.80069 2.00391C8.80069 2.00391 8.87587 3.29867 8.7185 5.0299M2.00378 13.7773C3.89028 13.8904 5.25786 13.203 6.24819 12.1104M4.22251 9.38183C4.22251 9.38183 4.34804 10.9022 6.24819 12.1104M11.6692 13.5403C9.05021 13.4073 7.35056 12.8114 6.24819 12.1104M1.99976 5.0299H8.7185M11.9593 5.0299H8.7185M22.0038 22L20.3811 18.8223M10.811 22L12.4337 18.8223M20.3811 18.8223L16.4074 11.0406L12.4337 18.8223M20.3811 18.8223H12.4337M8.7185 5.0299C8.51386 7.28114 7.91597 10.2704 6.24819 12.1104"
          stroke="#667085" stroke-width="2" stroke-linecap="round" stroke-linejoin="round"/>
</svg>