<svg width="36" height="36" viewBox="0 0 36 36" fill="none" xmlns="http://www.w3.org/2000/svg">
    <g clip-path="url(#clip0_133_27638)">
        <path d="M18 36C27.9411 36 36 27.9411 36 18C36 8.05887 27.9411 0 18 0C8.05887 0 0 8.05887 0 18C0 27.9411 8.05887 36 18 36Z"
              fill="url(#paint0_linear_133_27638)"/>
        <path fill-rule="evenodd" clip-rule="evenodd"
              d="M8.14656 17.8102C13.3939 15.524 16.893 14.0168 18.6438 13.2886C23.6425 11.2094 24.6813 10.8482 25.3583 10.8363C25.5072 10.8337 25.8401 10.8706 26.0558 11.0456C26.2379 11.1933 26.288 11.3929 26.3119 11.533C26.3359 11.6731 26.3658 11.9923 26.342 12.2416C26.0712 15.0879 24.899 21.9949 24.3027 25.1827C24.0504 26.5316 23.5536 26.9839 23.0726 27.0281C22.0273 27.1243 21.2336 26.3373 20.2211 25.6737C18.6369 24.6352 17.7419 23.9887 16.2041 22.9754C14.427 21.8042 15.579 21.1606 16.5918 20.1086C16.8569 19.8333 21.4625 15.6442 21.5516 15.2642C21.5628 15.2167 21.5731 15.0395 21.4679 14.946C21.3626 14.8524 21.2073 14.8844 21.0952 14.9098C20.9363 14.9459 18.4055 16.6187 13.5027 19.9282C12.7843 20.4215 12.1336 20.6618 11.5507 20.6492C10.908 20.6353 9.67167 20.2858 8.75262 19.9871C7.62537 19.6207 6.72946 19.4269 6.80747 18.8046C6.8481 18.4805 7.29447 18.149 8.14656 17.8102Z"
              fill="white"/>
    </g>
    <defs>
        <linearGradient id="paint0_linear_133_27638" x1="18" y1="0" x2="18" y2="35.733" gradientUnits="userSpaceOnUse">
            <stop stop-color="#2AABEE"/>
            <stop offset="1" stop-color="#229ED9"/>
        </linearGradient>
        <clipPath id="clip0_133_27638">
            <rect width="36" height="36" fill="white"/>
        </clipPath>
    </defs>
</svg>
