<svg width="36" height="36" viewBox="0 0 36 36" fill="none" xmlns="http://www.w3.org/2000/svg">
<g id="VK">
<path id="Background" d="M18 36C27.9411 36 36 27.9411 36 18C36 8.05888 27.9411 0 18 0C8.05888 0 0 8.05888 0 18C0 27.9411 8.05888 36 18 36Z" fill="#0077FF"/>
<path id="VK_2" d="M18.6597 24.6374C11.6807 24.6374 7.70232 19.8519 7.53488 11.8884H11.0294C11.1449 17.7321 13.7219 20.2086 15.763 20.7192V11.8884H19.0566V16.9284C21.0659 16.7124 23.1907 14.4167 23.904 11.8884H27.1976C26.6484 15.0011 24.3511 17.2984 22.7185 18.2428C23.9954 18.8769 25.1231 19.7748 26.0271 20.8771C26.9312 21.9794 27.5909 23.2611 27.9628 24.6374H24.3393C23.5607 22.2128 21.6201 20.3375 19.0566 20.083V24.6374H18.6597Z" fill="white"/>
</g>
</svg>
