<svg width="36" height="36" viewBox="0 0 36 36" fill="none" xmlns="http://www.w3.org/2000/svg">
<g id="social-icon-whatsapp" clip-path="url(#clip0_133_27406)">
<path id="Background" d="M18 36C27.9411 36 36 27.9411 36 18C36 8.05888 27.9411 0 18 0C8.05888 0 0 8.05888 0 18C0 27.9411 8.05888 36 18 36Z" fill="#25D366"/>
<path id="WhatsApp" d="M7.36816 28.8002L8.89494 23.2082C7.71377 21.1502 7.24219 18.7588 7.55331 16.4047C7.86444 14.0505 8.94087 11.8651 10.6158 10.1872C12.2907 8.50926 14.4704 7.43262 16.8172 7.12415C19.1639 6.81568 21.5465 7.2926 23.5956 8.48099C25.6448 9.66938 27.2459 11.5029 28.1509 13.6972C29.0559 15.8915 29.2142 18.3241 28.6012 20.6178C27.9882 22.9116 26.6382 24.9383 24.7604 26.3839C22.8827 27.8295 20.5821 28.6132 18.2153 28.6135C16.4199 28.6125 14.6534 28.1604 13.0769 27.2987L7.36816 28.8002ZM13.3337 25.3508L13.6613 25.5537C15.0388 26.3723 16.6102 26.8046 18.2112 26.8056C20.1938 26.806 22.1203 26.1453 23.6879 24.9273C25.2555 23.7094 26.3752 22.0032 26.871 20.0772C27.3668 18.1511 27.2107 16.1143 26.4271 14.287C25.6435 12.4596 24.2768 10.9454 22.542 9.98239C20.8073 9.01934 18.8027 8.66207 16.8435 8.96674C14.8843 9.27141 13.0815 10.2207 11.7186 11.6655C10.3558 13.1102 9.51003 14.9685 9.31444 16.9481C9.11884 18.9277 9.58445 20.9163 10.6381 22.6015L10.8403 22.9403L9.93637 26.2497L13.3337 25.3508Z" fill="white"/>
<path id="WhatsApp_2" fill-rule="evenodd" clip-rule="evenodd" d="M23.5677 20.4852C23.5012 20.371 23.3219 20.3037 23.054 20.1691C22.7861 20.0346 21.4708 19.378 21.2251 19.2862C20.9793 19.1945 20.8021 19.1516 20.6208 19.4228C20.4395 19.694 19.9299 20.3037 19.7748 20.4852C19.6197 20.6667 19.4605 20.6891 19.1947 20.5525C18.4095 20.2333 17.6851 19.7787 17.0535 19.2087C16.4682 18.6607 15.9666 18.0278 15.5649 17.3307C15.4078 17.0595 15.5468 16.9229 15.6817 16.7781C15.8167 16.6333 15.9496 16.46 16.0846 16.303C16.1954 16.1662 16.2856 16.0137 16.3525 15.8503C16.3878 15.7754 16.4042 15.6929 16.4003 15.61C16.3965 15.5271 16.3724 15.4464 16.3303 15.3752C16.2639 15.2406 15.7261 13.9071 15.5045 13.3647C15.2829 12.8223 15.0674 12.9079 14.9002 12.8977C14.733 12.8875 14.5658 12.8977 14.3886 12.8977C14.2509 12.9 14.1152 12.9315 13.9903 12.9902C13.8654 13.0488 13.7541 13.1333 13.6634 13.2382C13.363 13.5266 13.1248 13.8747 12.9636 14.2607C12.8024 14.6467 12.7218 15.0622 12.7268 15.4813C12.7268 16.8148 13.6856 18.1035 13.8205 18.285C13.9555 18.4665 15.7079 21.203 18.393 22.3755C18.8915 22.5932 19.4012 22.7838 19.9198 22.9464C20.4659 23.1143 21.0431 23.1513 21.6058 23.0545C22.1194 22.977 23.189 22.3979 23.4186 21.7658C23.6483 21.1336 23.6342 20.5974 23.5677 20.4852Z" fill="white"/>
</g>
<defs>
<clipPath id="clip0_133_27406">
<rect width="36" height="36" fill="white"/>
</clipPath>
</defs>
</svg>
